# xmcd
#
# Track frame offsets: 
#        150
#        17323
#        33368
#        51332
#        66532
#        78699
#        91561
#        113827
#        132390
#        149712
#        163220
#        183709
#        200711
#        216712
#        228595
#        243418
#        259042
#        273945
#        292507
#        313329
#
# Disc length: 4319 seconds
#
# Revision: 1
# Processed by: cddbd v1.5.2PL0 Copyright (c) Steve Scherf et al.
# Submitted via: ExactAudioCopyFreeDBPlugin 1.0
#
DISCID=3710dd14
DTITLE=Various Artist - Country The Collection CD2
DYEAR=2014
DGENRE=Country
TTITLE0=To Know Him Is To Love Him - Dolly Parton, Linda Ronstadt, Emm
TTITLE0=ylou Harris
TTITLE1=Desperado - Linda Ronstadt
TTITLE2=The Way It Goes - Gillian Welch
TTITLE3=Please Mr Please - Olivia Newton-John
TTITLE4=Walkin Man - Seasick Steve
TTITLE5=Ruby, Dont' Take Your Love To Town (Re-Recorded Version) - Ken
TTITLE5=ny Rogers
TTITLE6=The First Time Ever I Saw Your Face - Vern Gosdin
TTITLE7=Sand And Water - Beth Nielsen Chapman
TTITLE8=Workin' Man [Nowhere To Go] - Nitty Gritty Dirt Band
TTITLE9=My Kind Of Music - Ray Scott
TTITLE10=Shame On The Moon - Rodney Crowell
TTITLE11=New Shade Of Blue - Southern Pacific
TTITLE12=I Loved 'Em Every One - T.G. Sheppard
TTITLE13=Timeless And True Love - The Mccarters
TTITLE14=Crush - Lila Mccann
TTITLE15=Do It In A Heartbeat - Carlene Carter
TTITLE16=(I'd Choose) You Again - The Forester Sisters
TTITLE17=Away - Whitney Duncan
TTITLE18=Daddy Can You See Me - Anita Cochran
TTITLE19=Bye Bye Love - The Everly Brothers
EXTD=
EXTT0=
EXTT1=
EXTT2=
EXTT3=
EXTT4=
EXTT5=
EXTT6=
EXTT7=
EXTT8=
EXTT9=
EXTT10=
EXTT11=
EXTT12=
EXTT13=
EXTT14=
EXTT15=
EXTT16=
EXTT17=
EXTT18=
EXTT19=
PLAYORDER=
